<?xml version="1.0" standalone="no"?>
<!DOCTYPE svg PUBLIC "-//W3C//DTD SVG 20010904//EN"
 "http://www.w3.org/TR/2001/REC-SVG-20010904/DTD/svg10.dtd">
<svg version="1.0" xmlns="http://www.w3.org/2000/svg"
 width="60px" height="60px" viewBox="0 0 64.000000 64.000000"
 preserveAspectRatio="xMidYMid meet">

<g transform="translate(0.000000,64.000000) scale(0.100000,-0.100000)"
fill="#0099dd" stroke="none">
<path d="M350 630 c0 -5 7 -10 15 -10 8 0 15 5 15 10 0 6 -7 10 -15 10 -8 0
-15 -4 -15 -10z"/>
<path d="M350 550 c0 -26 -12 -65 -35 -110 l-35 -70 0 -185 0 -185 40 0 40 0
0 113 c0 102 2 116 25 152 13 22 25 52 25 68 0 20 5 27 20 27 27 0 26 9 -15
90 -20 40 -35 84 -35 105 0 24 -5 35 -15 35 -11 0 -15 -11 -15 -40z"/>
<path d="M69 490 c-23 -22 -29 -37 -28 -67 l2 -38 6 42 c4 23 13 48 19 56 20
24 59 29 92 12 28 -15 34 -26 43 -85 3 -15 5 -9 6 16 0 22 -4 45 -11 52 -9 9
-9 15 0 24 9 9 19 10 42 1 17 -6 30 -7 30 -3 0 13 -28 18 -104 18 -63 1 -72
-2 -97 -28z"/>
<path d="M140 471 c-5 -11 -9 -35 -9 -53 l1 -33 8 35 c4 19 11 43 15 53 10 23
-2 22 -15 -2z"/>
<path d="M25 350 c3 -5 8 -10 11 -10 2 0 4 5 4 10 0 6 -5 10 -11 10 -5 0 -7
-4 -4 -10z"/>
<path d="M100 180 l0 -180 75 0 75 0 0 180 0 180 -50 0 c-43 0 -50 -3 -50 -20
0 -11 -7 -20 -15 -20 -8 0 -15 9 -15 20 0 11 -4 20 -10 20 -6 0 -10 -67 -10
-180z"/>
<path d="M440 320 c0 -6 32 -10 75 -10 43 0 75 4 75 10 0 6 -32 10 -75 10 -43
0 -75 -4 -75 -10z"/>
<path d="M0 181 c0 -124 2 -142 14 -126 8 11 19 16 30 12 14 -6 16 7 16 120 0
111 -2 124 -15 113 -13 -11 -18 -10 -30 6 -13 17 -14 2 -15 -125z"/>
<path d="M420 261 c-5 -11 -10 -22 -10 -25 0 -3 31 -6 70 -6 58 0 71 3 80 19
5 11 10 22 10 25 0 3 -31 6 -70 6 -58 0 -71 -3 -80 -19z"/>
<path d="M596 245 c-3 -9 0 -15 9 -15 16 0 20 16 6 24 -5 3 -11 -1 -15 -9z"/>
<path d="M390 100 l0 -100 75 0 75 0 0 100 0 100 -75 0 -75 0 0 -100z"/>
<path d="M580 100 l0 -100 30 0 30 0 0 100 0 100 -30 0 -30 0 0 -100z"/>
<path d="M26 15 c-3 -9 0 -15 9 -15 9 0 12 6 9 15 -4 8 -7 15 -9 15 -2 0 -5
-7 -9 -15z"/>
</g>
</svg>
