<?xml version="1.0" standalone="no"?>
<!DOCTYPE svg PUBLIC "-//W3C//DTD SVG 20010904//EN"
 "http://www.w3.org/TR/2001/REC-SVG-20010904/DTD/svg10.dtd">
<svg version="1.0" xmlns="http://www.w3.org/2000/svg"
 width="90px" height="90px" viewBox="0 0 500.000000 500.000000"
 preserveAspectRatio="xMidYMid meet">

<g transform="translate(0.000000,500.000000) scale(0.100000,-0.100000)"
fill="#ffffff" stroke="none">
<path d="M2080 3615 l-405 -233 -3 -483 -2 -484 415 -239 415 -238 91 50 91
51 40 -29 c94 -68 255 -86 370 -41 75 29 161 108 198 181 31 62 55 169 45 207
-6 26 6 136 12 116 5 -15 59 -17 68 -3 4 6 56 10 123 10 l117 0 78 125 79 125
199 0 c109 0 199 -2 199 -5 0 -3 -12 -24 -27 -46 l-26 -40 -101 2 c-73 1 -106
5 -118 16 -35 31 -96 -6 -72 -44 14 -23 57 -28 74 -9 10 13 36 16 125 16 l112
0 37 55 36 55 240 0 241 0 40 -65 41 -65 94 0 c116 0 126 18 12 22 l-83 3 -44
65 -43 65 -239 5 -240 5 30 48 31 47 335 0 c291 0 335 2 335 15 0 13 -45 15
-343 15 l-342 0 -40 -65 -40 -64 -220 -1 -220 0 -76 -123 -77 -122 -106 -3
c-85 -2 -110 0 -122 13 -18 18 -46 19 -62 3 -9 -9 -12 83 -12 413 0 393 -1
427 -17 441 -32 26 -810 468 -824 467 -8 0 -196 -105 -419 -234z m773 -27
c398 -228 387 -221 387 -228 0 -3 -45 -32 -100 -63 l-100 -57 -370 212 c-204
117 -370 215 -370 218 0 5 187 118 198 119 2 1 161 -90 355 -201z m5 -310 c67
-39 122 -72 122 -73 0 -6 -185 -108 -195 -108 -15 1 -730 417 -734 427 -1 4
39 32 90 61 l92 52 251 -144 c138 -80 306 -177 374 -215z m-508 0 c204 -117
370 -215 370 -218 0 -3 -50 -34 -110 -68 l-111 -62 -369 212 c-204 117 -370
215 -370 218 0 4 206 126 218 129 1 1 169 -95 372 -211z m-187 -218 l306 -175
1 -433 0 -433 -42 25 c-24 13 -191 110 -373 214 l-330 190 -3 432 -2 432 68
-39 c38 -21 207 -117 375 -213z m1117 -134 l0 -384 -62 62 c-47 47 -78 69
-122 85 -204 76 -415 -7 -505 -198 -23 -49 -26 -68 -26 -162 0 -103 1 -109 36
-177 l37 -72 -52 -29 -51 -30 -3 426 c-1 260 1 430 7 436 5 5 56 36 113 68
l103 58 5 -82 c5 -79 6 -82 30 -84 16 -2 71 24 150 70 l125 73 5 103 5 103
100 59 c55 32 101 59 103 59 1 0 2 -173 2 -384z m-272 158 l-3 -67 -85 -48
c-47 -27 -88 -49 -92 -49 -5 0 -8 28 -8 63 l0 63 88 51 c48 29 91 52 95 53 4
0 7 -30 5 -66z m59 -445 c72 -28 144 -94 180 -168 24 -48 28 -68 28 -141 0
-73 -4 -93 -28 -142 -35 -72 -110 -140 -185 -168 -74 -28 -184 -24 -254 9
-184 88 -249 299 -145 472 37 62 113 123 177 144 68 21 160 19 227 -6z"/>
<path d="M1790 2528 c0 -18 18 -33 85 -70 95 -54 128 -61 123 -26 -2 15 -28
36 -83 69 -90 54 -125 62 -125 27z"/>
<path d="M2980 2365 l-134 -135 -31 30 c-34 33 -62 39 -72 14 -6 -17 81 -114
103 -114 6 0 76 66 155 146 140 141 169 184 129 192 -8 1 -75 -58 -150 -133z"/>
<path d="M1580 3316 c-10 -13 -36 -16 -125 -16 l-113 0 -75 -117 -74 -118
-202 -3 -202 -2 25 42 26 43 100 3 c89 2 104 0 127 -18 23 -18 29 -19 47 -6
25 16 32 42 16 61 -16 19 -54 19 -70 0 -10 -12 -37 -15 -126 -15 l-113 0 -33
-55 -33 -54 -245 -1 -245 0 -39 65 -38 65 -94 0 c-116 0 -126 -18 -11 -22 l82
-3 43 -65 42 -65 241 -5 240 -5 -30 -47 -31 -48 -335 0 c-291 0 -335 -2 -335
-15 0 -13 45 -15 343 -15 l342 0 40 65 40 64 220 1 220 0 79 125 78 125 103 0
c80 0 105 -3 115 -16 17 -19 60 -14 74 9 24 38 -44 78 -74 43z"/>
<path d="M4072 3318 c-27 -27 -6 -68 34 -68 12 0 27 6 33 14 9 11 38 15 109
15 53 0 102 -3 107 -7 6 -4 44 -60 85 -124 l73 -118 130 0 c98 0 128 -3 125
-12 -6 -17 -904 -24 -924 -7 -8 6 -46 62 -86 125 l-71 114 -114 0 c-88 0 -118
3 -129 15 -23 23 -53 18 -66 -10 -9 -21 -8 -28 7 -45 22 -24 38 -25 55 -5 10
12 37 15 124 15 l111 -1 74 -119 74 -120 478 0 479 0 16 25 c15 24 21 25 110
25 77 0 94 3 94 15 0 12 -16 15 -85 15 l-85 0 16 25 c15 23 23 25 85 25 55 0
69 3 69 15 0 12 -15 15 -75 15 l-75 0 -26 -40 -27 -41 -136 3 -135 3 -76 119
-76 120 -110 -3 c-90 -2 -113 0 -123 13 -16 19 -52 21 -69 4z"/>
<path d="M204 2785 c-15 -24 -21 -25 -110 -25 -77 0 -94 -3 -94 -15 0 -12 16
-15 85 -15 l85 0 -16 -25 c-15 -23 -23 -25 -85 -25 -55 0 -69 -3 -69 -15 0
-12 15 -15 78 -15 l77 0 23 40 23 41 136 -3 136 -3 74 -117 75 -118 113 0 c89
0 115 -3 125 -16 30 -35 98 5 74 44 -15 23 -62 28 -70 8 -5 -13 -25 -16 -113
-16 l-107 0 -80 125 -79 125 -127 0 c-80 0 -128 4 -128 10 0 7 157 9 466 8
l467 -3 74 -117 75 -118 113 0 c88 0 115 -3 125 -15 20 -24 59 -19 72 10 8 19
8 28 -2 40 -16 19 -54 19 -70 0 -10 -12 -35 -15 -116 -14 l-104 2 -77 124 -76
123 -478 0 -479 0 -16 -25z"/>
<path d="M955 1305 c-51 -18 -75 -48 -75 -92 0 -50 40 -86 115 -102 72 -16 90
-28 74 -47 -18 -22 -77 -18 -91 6 -10 16 -24 20 -61 20 -45 0 -48 -1 -42 -22
21 -70 68 -92 177 -86 64 3 73 7 99 36 20 22 29 43 29 66 0 53 -30 81 -107
100 -80 20 -98 32 -82 52 18 21 66 17 79 -6 15 -28 100 -29 100 -1 0 32 -37
68 -84 80 -57 14 -82 13 -131 -4z"/>
<path d="M1880 1309 c-77 -23 -117 -92 -107 -187 10 -96 65 -142 170 -142 101
0 158 39 176 120 18 84 -11 165 -70 196 -39 20 -123 27 -169 13z m120 -89 c31
-31 28 -113 -5 -145 -42 -43 -96 -29 -115 31 -14 41 -7 90 17 116 22 24 78 23
103 -2z"/>
<path d="M2374 1310 c-95 -30 -134 -170 -74 -268 26 -42 73 -62 145 -62 85 0
139 35 151 98 l7 32 -47 0 c-40 0 -48 -3 -55 -24 -16 -40 -68 -49 -101 -16
-28 28 -29 129 -2 153 35 32 102 12 102 -29 0 -10 13 -14 50 -14 55 0 58 5 39
58 -6 18 -26 41 -45 52 -39 24 -124 34 -170 20z"/>
<path d="M1310 1270 l0 -40 55 0 55 0 0 -125 0 -125 50 0 50 0 0 125 0 125 55
0 55 0 0 40 0 40 -160 0 -160 0 0 -40z"/>
<path d="M2760 1145 l0 -165 55 0 55 0 0 38 c0 28 7 45 25 62 30 28 36 24 74
-47 l26 -48 64 -3 64 -3 -16 24 c-8 13 -37 58 -63 101 l-47 77 34 37 c19 20
45 49 58 65 l24 27 -64 0 -64 0 -57 -71 -58 -71 0 71 0 71 -55 0 -55 0 0 -165z"/>
<path d="M3530 1145 l0 -165 50 0 50 0 0 165 0 165 -50 0 -50 0 0 -165z"/>
<path d="M3810 1144 l0 -167 108 5 c160 6 206 43 206 164 0 124 -51 164 -211
164 l-103 0 0 -166z m197 69 c18 -24 16 -104 -3 -131 -11 -16 -25 -22 -55 -22
l-39 0 0 83 c0 46 3 87 8 91 12 13 76 -2 89 -21z"/>
</g>
</svg>
