<?xml version="1.0" standalone="no"?>
<!DOCTYPE svg PUBLIC "-//W3C//DTD SVG 20010904//EN"
 "http://www.w3.org/TR/2001/REC-SVG-20010904/DTD/svg10.dtd">
<svg version="1.0" xmlns="http://www.w3.org/2000/svg"
 width="55px" height="55px" viewBox="0 0 512.000000 512.000000"
 preserveAspectRatio="xMidYMid meet">

<g transform="translate(0.000000,512.000000) scale(0.100000,-0.100000)"
fill="#ffffff" stroke="none">
<path d="M2740 5030 l0 -90 185 0 185 0 0 90 0 90 -185 0 -185 0 0 -90z"/>
<path d="M2740 4420 l0 -330 -275 -550 -275 -550 0 -1495 0 -1495 370 0 370 0
0 885 0 885 180 315 180 315 0 184 c0 183 0 185 26 215 l25 30 157 3 157 3 3
77 3 76 -276 551 -275 551 0 330 0 330 -185 0 -185 0 0 -330z"/>
<path d="M917 4199 c-246 -28 -469 -189 -572 -414 -58 -125 -66 -177 -72 -437
l-6 -238 97 0 96 0 0 223 c0 162 4 237 15 277 51 193 202 344 395 395 94 25
275 14 329 -20 7 -4 -3 -23 -28 -51 -54 -61 -118 -188 -141 -280 -17 -66 -20
-111 -20 -311 l0 -233 89 0 89 0 4 243 c3 225 5 246 27 302 26 65 97 179 131
210 l22 20 44 -49 c23 -27 57 -75 73 -106 53 -99 61 -151 61 -397 l0 -223 96
0 96 0 -5 243 c-5 265 -12 304 -71 432 -18 39 -54 98 -81 133 -26 35 -46 65
-43 67 13 14 134 35 198 35 126 0 244 -41 338 -118 l44 -35 64 64 65 64 -48
42 c-195 172 -518 215 -764 102 -65 -30 -67 -31 -100 -14 -64 34 -174 65 -259
75 -47 5 -87 9 -90 9 -3 -1 -35 -5 -73 -10z"/>
<path d="M86 2918 c26 -44 185 -278 189 -278 7 0 185 268 185 280 0 6 -67 10
-191 10 -149 0 -189 -3 -183 -12z"/>
<path d="M737 2924 c-4 -4 -7 -664 -7 -1466 l0 -1458 640 0 640 0 0 1465 0
1465 -410 0 -410 0 0 -185 0 -185 -90 0 -90 0 -2 183 -3 182 -131 3 c-71 1
-133 -1 -137 -4z"/>
<path d="M0 1465 c0 -711 4 -1245 9 -1239 5 5 49 70 98 144 50 74 100 143 111
154 29 25 88 24 117 -4 13 -12 66 -85 117 -163 l93 -140 3 627 c1 345 1 907 0
1249 l-3 622 -99 -153 c-54 -84 -108 -159 -119 -167 -25 -17 -70 -19 -98 -5
-11 6 -67 82 -124 168 l-105 157 0 -1250z"/>
<path d="M3470 2560 l0 -90 640 0 640 0 0 90 0 90 -640 0 -640 0 0 -90z"/>
<path d="M3426 2268 c-24 -39 -246 -430 -246 -434 0 -2 281 -4 624 -4 l624 0
123 217 c68 119 125 223 127 230 3 11 -109 13 -617 13 l-621 0 -14 -22z"/>
<path d="M4743 2012 l-102 -177 105 -3 c58 -1 150 -1 204 0 l100 3 -99 173
c-54 95 -100 174 -103 177 -2 2 -50 -75 -105 -173z"/>
<path d="M3110 825 l0 -825 640 0 640 0 -2 823 -3 822 -637 3 -638 2 0 -825z"/>
<path d="M4577 1643 c-4 -3 -7 -375 -7 -825 l0 -818 275 0 275 0 0 825 0 825
-268 0 c-148 0 -272 -3 -275 -7z"/>
<path d="M177 145 l-97 -145 195 0 195 0 -91 137 c-50 76 -95 141 -99 146 -3
4 -50 -58 -103 -138z"/>
</g>
</svg>
